<?xml version="1.0" standalone="no"?>
<!DOCTYPE svg PUBLIC "-//W3C//DTD SVG 20010904//EN"
 "http://www.w3.org/TR/2001/REC-SVG-20010904/DTD/svg10.dtd">
<svg version="1.0" xmlns="http://www.w3.org/2000/svg"
 width="400.000000pt" height="400.000000pt" viewBox="0 0 400.000000 400.000000"
 preserveAspectRatio="xMidYMid meet">
<metadata>
Created by potrace 1.11, written by Peter Selinger 2001-2013
</metadata>
<g transform="translate(0.000000,400.000000) scale(0.100000,-0.100000)"
fill="#000000" stroke="none">
<path d="M0 3460 c0 -297 2 -540 4 -540 3 0 12 7 21 16 11 11 13 19 6 24 -8 4
-7 12 3 25 12 16 16 17 30 6 14 -11 16 -11 16 3 0 9 8 17 18 17 9 1 22 2 27 4
6 1 16 3 24 3 11 2 10 5 -4 15 -12 10 -14 16 -7 21 7 4 12 2 12 -3 0 -6 9 -11
20 -11 11 0 20 4 20 10 0 5 7 7 15 4 10 -4 15 0 16 12 0 24 92 84 126 84 26 0
53 21 53 41 0 9 3 9 15 -1 8 -6 19 -9 26 -5 8 6 8 9 -1 15 -18 11 44 70 73 70
13 0 25 6 26 13 1 6 3 26 5 42 2 25 8 31 32 33 16 2 35 8 41 14 16 13 47 2 38
-12 -4 -7 2 -9 19 -4 20 5 26 2 26 -10 0 -12 8 -14 40 -10 44 6 54 -10 24 -41
-9 -8 -13 -22 -10 -30 7 -20 36 -19 36 2 0 13 4 12 20 -7 11 -12 17 -27 14
-32 -4 -7 -9 -6 -13 1 -4 6 -8 -18 -9 -52 -2 -67 12 -64 23 5 8 48 25 40 25
-12 0 -24 -5 -40 -15 -44 -20 -7 -20 -46 0 -46 22 0 18 -21 -6 -27 -12 -4 -18
-11 -15 -20 3 -8 6 -21 6 -29 0 -8 5 -14 10 -14 6 0 10 6 10 13 0 6 11 17 25
23 24 12 24 11 22 -27 -1 -23 -7 -39 -14 -39 -9 0 -13 -16 -13 -45 0 -30 -4
-44 -12 -42 -6 1 -14 -6 -16 -16 -2 -11 2 -16 10 -15 9 2 14 -11 16 -44 2 -27
7 -48 11 -48 4 0 6 -28 5 -62 -2 -35 -3 -69 -4 -75 0 -7 -5 -13 -11 -13 -6 0
-8 8 -4 19 3 11 2 22 -4 25 -5 3 -11 -11 -14 -32 -14 -94 -39 -203 -61 -267
-14 -38 -28 -88 -31 -110 -4 -22 -13 -60 -21 -84 -11 -33 -13 -65 -8 -123 4
-43 10 -78 14 -78 14 0 10 -84 -6 -133 -12 -37 -13 -51 -4 -62 8 -10 9 -28 4
-57 -5 -24 -9 -50 -10 -58 0 -8 -2 -18 -4 -22 -1 -5 -3 -11 -5 -15 -1 -5 -5
-16 -10 -26 -4 -10 -4 -42 -1 -70 4 -29 8 -58 8 -64 1 -7 5 -13 10 -13 4 0 8
-29 8 -64 0 -44 5 -67 15 -76 8 -7 15 -29 15 -49 0 -20 4 -41 9 -47 5 -5 12
-20 14 -34 3 -14 3 16 0 66 -3 50 -2 102 3 115 8 24 8 24 14 -6 4 -21 8 -3 13
60 4 50 14 169 22 265 8 96 19 240 25 320 11 139 18 186 42 275 6 22 12 47 13
55 1 8 7 28 14 43 6 16 11 40 11 53 0 14 5 35 12 47 7 12 13 27 15 32 15 53
38 115 44 115 4 0 5 -9 2 -20 -9 -35 12 -21 30 20 9 22 20 40 24 40 5 0 21 21
37 48 34 53 80 102 98 102 6 0 9 3 5 6 -8 8 25 44 40 44 7 0 13 7 13 15 0 8 7
15 15 15 8 0 15 8 15 18 0 16 21 32 63 48 9 3 17 10 17 15 0 18 44 27 55 12
10 -13 18 -13 63 0 28 9 83 19 122 23 38 3 70 10 70 15 0 4 16 5 36 2 25 -4
39 -2 46 8 7 11 11 11 15 2 3 -9 10 -9 28 3 23 15 24 15 36 -25 12 -39 29 -56
29 -28 0 16 22 15 63 -1 21 -9 40 -8 85 4 74 19 113 25 126 17 6 -4 27 -6 47
-4 20 1 40 -2 43 -8 10 -16 67 -41 109 -48 21 -3 41 -12 44 -19 3 -8 11 -14
18 -14 6 0 19 -8 29 -19 9 -10 34 -26 56 -36 23 -11 37 -22 33 -30 -5 -15 32
-39 47 -30 5 3 7 0 4 -8 -3 -8 2 -17 10 -20 20 -8 21 -41 1 -61 -20 -20 -19
-29 3 -17 10 5 24 6 32 1 12 -7 12 -11 0 -25 -11 -14 -10 -17 8 -22 16 -4 22
-13 22 -33 0 -22 5 -29 22 -32 15 -2 24 -13 31 -37 5 -21 25 -49 48 -69 22
-20 38 -41 35 -49 -4 -9 3 -13 19 -13 14 0 25 -4 25 -10 0 -5 -4 -10 -10 -10
-19 0 -10 -18 13 -24 18 -5 20 -8 7 -16 -8 -5 -10 -10 -4 -10 6 0 19 -26 29
-57 9 -32 22 -67 28 -78 16 -31 25 -114 13 -119 -6 -2 0 -8 14 -13 l24 -10
-22 -12 c-32 -17 -18 -30 23 -21 21 5 33 4 29 -1 -8 -14 19 -69 33 -69 23 0
32 -84 32 -293 0 -160 -4 -191 -20 -181 -5 3 -9 -4 -9 -15 0 -12 6 -20 13 -18
7 1 13 -12 15 -35 3 -38 -13 -53 -21 -20 -4 16 -5 16 -6 0 -2 -40 -20 -14 -24
34 -2 29 -3 21 -2 -17 3 -79 -7 -109 -35 -100 -22 7 -30 -12 -24 -62 3 -26 2
-32 -4 -19 -6 14 -11 16 -16 8 -4 -7 -5 -16 -2 -21 3 -5 -8 -14 -24 -21 -19
-8 -30 -20 -30 -32 0 -11 -8 -22 -20 -25 -11 -3 -24 -20 -30 -42 -18 -57 -32
-80 -52 -87 -16 -5 -18 -12 -13 -36 5 -19 3 -28 -2 -25 -15 9 -76 -15 -91 -35
-7 -10 -20 -18 -28 -18 -8 0 -12 -5 -9 -11 4 -6 -2 -13 -14 -16 -12 -3 -21
-13 -21 -24 0 -11 -3 -18 -7 -18 -26 4 -73 -2 -69 -10 7 -10 -38 -54 -46 -45
-4 3 -11 -4 -18 -15 -6 -12 -18 -21 -26 -21 -8 0 -13 -4 -9 -9 3 -5 -4 -12
-15 -16 -25 -8 -25 -16 -1 -42 11 -11 21 -29 24 -39 2 -11 3 -7 2 8 -1 23 3
28 21 28 20 0 26 -9 40 -58 9 -31 25 -63 35 -70 11 -7 19 -24 19 -37 0 -14 9
-29 21 -35 19 -11 19 -13 4 -24 -10 -7 -14 -18 -9 -29 8 -21 20 -22 28 -2 4
10 19 15 48 14 40 -1 41 -2 13 -9 -29 -7 -29 -8 -4 -9 14 0 33 -9 42 -19 21
-23 22 -39 2 -22 -13 10 -15 9 -15 -9 0 -13 -6 -21 -16 -21 -14 0 -15 2 -3 17
12 15 12 16 -6 9 -11 -5 -29 -11 -40 -14 -18 -5 -18 -6 5 -13 l25 -6 -29 -12
c-18 -7 -26 -16 -22 -26 3 -8 -4 -21 -17 -30 -12 -8 -16 -15 -10 -15 7 0 10
-12 9 -27 -2 -22 -9 -29 -31 -31 -21 -3 -26 -8 -22 -23 3 -10 1 -21 -4 -24 -4
-3 -6 -12 -2 -20 3 -9 -1 -15 -11 -15 -21 0 -20 -16 2 -30 16 -9 15 -11 -5
-29 -13 -11 -23 -22 -23 -25 0 -3 351 -6 780 -6 l780 0 0 2000 0 2000 -2000 0
-2000 0 0 -540z m770 10 c0 -5 -10 -18 -21 -29 -13 -12 -19 -26 -15 -36 9 -25
-3 -37 -21 -19 -12 11 -13 18 -4 27 16 16 14 25 -6 30 -11 2 -3 7 20 11 20 5
37 12 37 17 0 5 2 9 5 9 3 0 5 -4 5 -10z m0 -101 c0 -5 -4 -9 -10 -9 -5 0 -10
7 -10 16 0 8 5 12 10 9 6 -3 10 -10 10 -16z m61 -12 c-1 -12 -15 -9 -19 4 -3
6 1 10 8 8 6 -3 11 -8 11 -12z m2380 -284 l-11 -28 5 28 c4 19 2 26 -5 22 -11
-7 -14 8 -3 19 15 15 25 -13 14 -41z m-79 -25 c-9 -9 -12 -7 -12 12 0 19 3 21
12 12 9 -9 9 -15 0 -24z m116 -12 c2 -15 12 -36 23 -47 19 -19 19 -19 31 1 12
19 13 19 35 -2 13 -12 23 -27 23 -35 0 -7 8 -13 18 -13 27 -1 64 -37 62 -62
-4 -44 0 -55 24 -68 14 -7 27 -23 30 -36 4 -16 14 -24 27 -24 17 0 19 -3 10
-14 -7 -8 -8 -16 -4 -18 10 -4 53 -91 53 -107 0 -6 5 -11 10 -11 14 0 12 -37
-2 -44 -10 -3 -9 -8 3 -18 9 -7 29 -40 44 -73 15 -33 39 -71 54 -85 15 -14 33
-44 40 -67 6 -24 16 -43 21 -43 6 0 10 -24 10 -54 0 -30 5 -58 10 -61 19 -12
10 -26 -12 -20 l-23 6 23 -20 24 -21 -29 -11 c-40 -15 -72 -58 -73 -96 0 -18
-4 -33 -9 -33 -10 0 -20 -87 -13 -108 3 -7 10 -11 16 -9 8 3 10 -8 8 -34 -3
-28 0 -39 9 -39 11 0 11 -2 1 -8 -10 -7 -7 -21 13 -63 13 -30 25 -60 25 -66 0
-7 7 -13 15 -13 9 0 15 -9 15 -25 0 -14 -6 -25 -12 -25 -8 0 -9 -3 -3 -8 6 -4
12 -32 14 -62 2 -30 8 -58 15 -62 6 -4 11 -20 12 -35 1 -15 4 -35 8 -43 4 -9
-2 -25 -14 -37 -23 -25 -26 -44 -7 -41 14 3 22 -70 12 -109 -4 -19 -10 -22
-32 -17 -24 6 -26 5 -20 -22 3 -16 1 -37 -4 -47 -8 -14 -5 -19 19 -28 23 -8
29 -15 25 -30 -3 -10 -12 -19 -20 -19 -13 0 -13 3 -3 15 23 28 -8 16 -39 -16
-31 -30 -45 -63 -18 -41 11 9 13 -1 14 -54 0 -47 -3 -67 -13 -71 -8 -3 -14
-14 -14 -24 0 -10 -4 -19 -10 -19 -5 0 -10 -15 -10 -32 0 -25 3 -29 10 -18 7
11 10 8 10 -16 0 -19 -6 -34 -15 -38 -8 -3 -15 -16 -15 -30 0 -15 -7 -25 -19
-29 -13 -3 -18 0 -15 8 3 7 1 16 -4 19 -13 8 -23 -63 -12 -83 6 -11 2 -26 -11
-48 -12 -19 -18 -41 -14 -52 3 -11 1 -22 -5 -26 -6 -3 -8 -11 -5 -16 4 -5 -2
-9 -12 -10 -10 0 -43 -5 -73 -10 -30 -5 -113 -15 -185 -23 -164 -19 -265 -47
-328 -92 -39 -28 -60 -36 -114 -41 -63 -6 -66 -5 -59 13 36 87 76 225 73 249
l-3 30 -11 -25 -12 -25 0 25 c-1 15 7 30 19 38 11 7 20 22 21 35 0 20 1 20 8
3 4 -11 10 -15 13 -10 33 54 46 84 38 89 -5 3 -17 -6 -26 -21 l-18 -26 -8 22
c-5 14 -4 28 3 37 7 7 13 26 14 42 1 16 8 37 14 47 10 17 11 16 7 -6 -3 -14
-7 -39 -10 -55 l-5 -31 66 -2 c56 -2 71 1 104 23 22 14 39 33 39 44 0 10 3 33
7 51 4 22 3 31 -4 27 -7 -4 -8 8 -3 36 5 23 7 61 5 85 -1 23 2 42 6 42 15 0
21 -49 10 -81 -13 -39 -13 -39 -1 -39 5 0 14 19 20 43 16 58 39 126 50 148 6
10 13 49 16 86 3 37 7 71 10 75 10 15 54 209 54 234 0 14 -5 34 -10 45 -11 20
-40 27 -40 9 0 -5 -6 -10 -14 -10 -8 0 -16 -6 -19 -12 -2 -7 -4 1 -3 17 1 17
8 41 15 54 12 22 12 24 -8 18 -26 -6 -26 4 -5 67 18 51 16 133 -6 381 -6 66
-12 147 -14 181 -1 33 -6 66 -10 72 -4 7 -2 12 3 12 7 0 10 21 9 53 l-1 52 -7
-45 -7 -45 -2 45 c-2 61 -38 262 -48 269 -5 3 -10 22 -12 41 -1 19 -8 41 -14
49 -9 12 -9 13 1 7 6 -4 12 -2 12 3 0 6 -4 11 -8 11 -5 0 -14 18 -21 41 -11
37 -11 43 8 63 12 12 21 34 21 49 0 29 1 30 24 21 9 -3 16 -18 16 -32 0 -21 3
-23 12 -14 9 9 10 17 1 30 -16 27 -28 106 -14 98 6 -4 11 -13 11 -21 0 -22 31
-35 47 -20 16 17 17 57 1 73 -9 9 -9 12 0 12 7 0 12 7 12 16 0 27 25 9 28 -20z
m-101 -18 c-3 -8 -6 -5 -6 6 -1 11 2 17 5 13 3 -3 4 -12 1 -19z m-57 -89 c0
-4 -7 -6 -15 -3 -8 4 -15 10 -15 15 0 4 7 6 15 3 8 -4 15 -10 15 -15z m-2193
-251 c-3 -8 -6 -5 -6 6 -1 11 2 17 5 13 3 -3 4 -12 1 -19z m-160 -590 c-3 -8
-6 -5 -6 6 -1 11 2 17 5 13 3 -3 4 -12 1 -19z m8 -518 c3 -6 3 -20 -1 -33 -7
-21 -7 -21 -15 -2 -4 11 -8 26 -8 33 -1 14 15 16 24 2z m2275 -241 c0 -5 -4
-9 -10 -9 -5 0 -10 7 -10 16 0 8 5 12 10 9 6 -3 10 -10 10 -16z m11 -300 c-36
-77 -41 -63 -6 16 13 31 24 59 24 63 -1 4 0 16 1 27 2 12 5 8 7 -11 3 -20 -6
-53 -26 -95z m-263 -601 c-6 -18 -28 -21 -28 -4 0 9 7 16 16 16 9 0 14 -5 12
-12z"/>
<path d="M3111 2804 c0 -11 3 -14 6 -6 3 7 2 16 -1 19 -3 4 -6 -2 -5 -13z"/>
<path d="M3657 2374 c-8 -8 1 -24 14 -24 5 0 9 7 9 15 0 15 -12 20 -23 9z"/>
<path d="M3720 1590 c0 -5 5 -10 10 -10 6 0 10 5 10 10 0 6 -4 10 -10 10 -5 0
-10 -4 -10 -10z"/>
<path d="M3240 1181 c0 -12 5 -21 10 -21 17 0 13 -203 -5 -236 -8 -16 -15 -38
-15 -49 1 -18 2 -17 14 5 40 75 48 270 12 305 -15 15 -16 15 -16 -4z"/>
<path d="M3721 1184 c0 -11 3 -14 6 -6 3 7 2 16 -1 19 -3 4 -6 -2 -5 -13z"/>
<path d="M3688 1043 c7 -3 16 -2 19 1 4 3 -2 6 -13 5 -11 0 -14 -3 -6 -6z"/>
<path d="M2890 680 c0 -5 5 -10 10 -10 6 0 10 5 10 10 0 6 -4 10 -10 10 -5 0
-10 -4 -10 -10z"/>
<path d="M480 3241 c0 -5 9 -7 20 -4 11 3 20 7 20 9 0 2 -9 4 -20 4 -11 0 -20
-4 -20 -9z"/>
<path d="M348 3113 c6 -2 18 -2 25 0 6 3 1 5 -13 5 -14 0 -19 -2 -12 -5z"/>
<path d="M343 3083 c9 -2 23 -2 30 0 6 3 -1 5 -18 5 -16 0 -22 -2 -12 -5z"/>
<path d="M831 2904 c0 -11 3 -14 6 -6 3 7 2 16 -1 19 -3 4 -6 -2 -5 -13z"/>
<path d="M2545 2730 c-3 -5 -1 -10 4 -10 6 0 11 5 11 10 0 6 -2 10 -4 10 -3 0
-8 -4 -11 -10z"/>
<path d="M1050 2007 c-86 -66 -125 -126 -136 -207 -8 -60 10 -65 22 -5 3 19 9
35 13 35 4 0 13 10 20 23 17 32 62 57 104 57 20 0 69 -17 118 -41 46 -23 100
-49 119 -58 19 -9 48 -25 65 -36 l29 -19 -24 -7 c-14 -3 -29 -4 -33 -1 -5 2
-44 5 -88 7 -44 2 -96 9 -115 15 -55 19 -152 6 -181 -23 -28 -27 -37 -103 -15
-127 7 -8 21 -31 30 -50 12 -23 27 -37 47 -42 18 -4 38 -20 48 -37 23 -39 98
-61 209 -61 68 0 88 4 108 20 l25 21 -65 -4 c-149 -8 -256 82 -170 143 l30 21
0 -31 c0 -69 41 -110 107 -109 71 1 94 11 108 44 l13 30 -1 -27 c-1 -16 -6
-28 -11 -28 -20 0 5 -13 30 -16 15 -2 27 3 31 12 9 24 44 39 54 23 4 -7 11
-10 15 -7 4 4 -1 19 -10 33 -20 30 -10 50 31 66 23 8 23 10 8 40 -16 30 -16
32 4 46 38 26 23 111 -29 163 -31 31 -53 41 -141 65 -57 16 -136 43 -175 61
-40 17 -89 35 -111 38 -34 6 -44 3 -83 -27z m223 -294 c-7 -2 -21 -2 -30 0
-10 3 -4 5 12 5 17 0 24 -2 18 -5z"/>
<path d="M2395 1992 c-66 -27 -149 -57 -184 -67 -52 -16 -75 -30 -127 -80 -55
-53 -64 -66 -64 -97 0 -20 -6 -43 -14 -51 -9 -8 -12 -24 -9 -37 4 -13 1 -25
-7 -30 -8 -5 -15 -34 -18 -68 -4 -52 -2 -61 15 -71 26 -13 47 1 71 48 24 48
42 51 42 8 l0 -35 96 -7 c91 -7 95 -9 90 -29 -3 -11 -6 -24 -6 -28 0 -5 -6 -8
-14 -8 -26 0 -28 -20 -4 -40 41 -34 209 -86 309 -96 35 -4 71 -11 80 -15 17
-9 72 13 97 38 7 7 18 13 24 13 5 0 8 7 4 15 -3 8 0 15 6 15 9 0 9 3 0 12 -17
17 -15 48 3 48 9 0 20 11 25 24 7 18 20 27 52 33 39 8 43 11 44 38 0 17 4 65
8 108 7 62 12 80 28 88 15 8 18 17 13 42 -4 18 -13 42 -20 53 -12 19 -12 24 6
40 20 18 20 18 17 -10 -2 -18 2 -31 11 -34 10 -3 11 3 6 29 -10 44 -13 49 -33
49 -24 -1 -60 -33 -64 -58 -2 -18 -10 -11 -43 39 -51 79 -87 113 -149 144 -81
40 -145 35 -291 -23z m292 -87 c33 -14 123 -99 123 -117 0 -3 -10 -10 -21 -13
-15 -5 -25 -2 -31 9 -7 12 -13 14 -29 6 -13 -8 -25 -7 -41 1 -12 6 -71 13
-131 15 -60 2 -111 5 -113 7 -8 8 23 57 48 76 16 13 45 21 84 24 32 2 63 4 67
5 4 1 24 -5 44 -13z m140 -141 c-3 -3 -12 -4 -19 -1 -8 3 -5 6 6 6 11 1 17 -2
13 -5z m-412 -54 c3 -6 -4 -10 -17 -10 -18 0 -20 2 -8 10 19 12 18 12 25 0z
m-118 -36 c-3 -3 -12 -4 -19 -1 -8 3 -5 6 6 6 11 1 17 -2 13 -5z m3 -78 c0
-31 18 -78 33 -88 24 -15 -1 -18 -29 -3 -16 8 -37 15 -46 15 -29 0 -31 20 -4
61 30 45 46 50 46 15z m-125 -56 c3 -5 1 -10 -4 -10 -6 0 -11 5 -11 10 0 6 2
10 4 10 3 0 8 -4 11 -10z"/>
<path d="M2856 2005 c18 -28 24 -31 24 -12 0 7 -9 18 -20 25 -20 12 -21 12 -4
-13z"/>
<path d="M2850 1935 c-8 -9 -8 -15 -2 -15 12 0 26 19 19 26 -2 2 -10 -2 -17
-11z"/>
<path d="M2877 1923 c-4 -3 -7 -11 -7 -17 0 -6 5 -5 12 2 6 6 9 14 7 17 -3 3
-9 2 -12 -2z"/>
<path d="M2970 1775 c-10 -12 -10 -15 4 -15 9 0 16 7 16 15 0 8 -2 15 -4 15
-2 0 -9 -7 -16 -15z"/>
<path d="M2937 1380 c-3 -13 0 -20 9 -20 8 0 14 9 14 20 0 11 -4 20 -9 20 -5
0 -11 -9 -14 -20z"/>
<path d="M2850 1212 c0 -12 19 -26 26 -19 2 2 -2 10 -11 17 -9 8 -15 8 -15 2z"/>
<path d="M2065 1005 c-9 -32 -20 -54 -23 -49 -23 32 -96 60 -117 44 -5 -4 -26
-13 -46 -19 -20 -6 -46 -21 -59 -33 -13 -12 -36 -23 -50 -24 -15 -1 -41 -5
-58 -9 -24 -5 -39 -1 -69 19 -43 30 -65 32 -83 11 -22 -26 5 -64 44 -63 45 1
86 -5 86 -14 0 -4 11 -23 24 -43 14 -20 26 -41 28 -47 2 -6 42 -17 88 -24 93
-13 142 -4 138 25 -2 10 5 17 18 19 34 5 110 82 124 125 13 42 7 93 -14 122
-12 17 -15 14 -31 -40z"/>
<path d="M810 835 c0 -9 5 -15 11 -13 6 2 11 8 11 13 0 5 -5 11 -11 13 -6 2
-11 -4 -11 -13z"/>
<path d="M800 783 c0 -13 81 -63 102 -63 15 0 17 5 12 28 -4 15 -8 30 -11 34
-5 10 -43 5 -43 -5 0 -5 -7 -6 -15 -3 -8 3 -22 9 -30 12 -8 3 -15 2 -15 -3z"/>
<path d="M924 763 c4 -9 9 -39 12 -66 2 -27 9 -57 14 -66 7 -12 9 -7 5 17 -5
30 -4 32 14 22 11 -5 22 -10 25 -10 11 0 6 39 -7 52 -8 7 -12 18 -10 24 2 7
-3 14 -12 18 -13 5 -15 1 -10 -17 5 -17 4 -19 -4 -7 -6 8 -11 23 -11 33 0 9
-5 17 -11 17 -6 0 -8 -7 -5 -17z"/>
<path d="M2297 645 c-10 -10 -24 -11 -50 -5 -32 7 -38 5 -51 -15 -18 -27 -71
-42 -90 -26 -7 6 -20 9 -29 5 -8 -3 -24 -1 -34 4 -10 6 -52 15 -93 21 -59 8
-87 7 -129 -5 -48 -12 -64 -12 -131 2 l-76 15 -108 -52 c-111 -53 -129 -56
-229 -36 -7 1 -13 -12 -15 -34 -3 -33 0 -37 30 -50 51 -21 136 -115 144 -158
4 -20 14 -45 24 -56 23 -27 51 -86 45 -95 -7 -11 16 -60 27 -60 5 0 22 -10 38
-22 16 -12 33 -19 36 -15 4 3 14 1 24 -6 21 -14 303 -3 332 13 10 6 28 10 40
10 13 0 29 9 36 20 7 11 18 20 26 20 8 0 32 34 55 75 41 77 53 94 84 123 9 9
17 22 17 29 0 7 8 13 18 13 19 0 43 24 65 67 20 39 59 72 64 56 8 -22 33 -14
44 14 12 32 8 58 -9 59 -6 1 -18 2 -26 3 -8 0 -14 7 -13 14 1 47 -5 65 -28 75
-19 9 -27 8 -38 -3z m-559 -151 c12 -8 22 -22 22 -32 0 -11 7 -6 20 16 17 27
25 32 59 32 52 0 71 -20 71 -75 0 -33 -5 -47 -19 -54 -27 -15 -241 -25 -241
-11 0 5 -20 10 -44 10 -36 0 -46 4 -51 20 -7 22 -20 26 -30 10 -20 -33 -39 10
-21 46 13 24 15 24 24 7 10 -16 11 -16 21 10 12 30 41 36 62 11 11 -14 14 -13
26 11 12 23 19 25 46 20 18 -4 42 -13 55 -21z m258 -26 c-1 -13 2 -26 7 -29
12 -9 -3 -38 -24 -44 -34 -11 -59 4 -59 35 0 34 23 60 54 60 18 0 23 -5 22
-22z m-168 -154 c6 -2 12 2 13 9 0 7 4 3 9 -8 10 -26 0 -36 -41 -39 -19 -2
-41 -5 -49 -7 -10 -3 -16 5 -18 25 -2 18 0 26 7 21 6 -3 11 -1 11 5 0 9 26 7
68 -6z m78 -1 c-2 -9 -8 -19 -14 -21 -14 -4 -15 0 -6 22 8 21 23 20 20 -1z
m-352 -8 c3 -8 1 -15 -3 -15 -5 0 -11 7 -15 15 -3 8 -1 15 3 15 5 0 11 -7 15
-15z m166 4 c0 -4 3 -15 7 -25 5 -13 3 -16 -9 -12 -8 4 -29 -2 -45 -12 -29
-17 -30 -17 -42 2 -20 32 7 52 72 53 9 1 17 -2 17 -6z m-116 -15 c8 -22 8 -24
-8 -24 -18 0 -29 16 -21 30 9 15 22 12 29 -6z m96 -43 c0 -6 -4 -13 -10 -16
-5 -3 -10 1 -10 9 0 9 5 16 10 16 6 0 10 -4 10 -9z"/>
<path d="M979 157 c-41 -34 -100 -83 -130 -109 l-54 -48 198 0 c177 0 227 6
182 24 -8 3 -15 12 -15 20 0 8 -8 21 -17 28 -10 7 -33 43 -52 81 -18 37 -34
67 -35 66 0 0 -35 -28 -77 -62z"/>
</g>
</svg>
